<svg xmlns="http://www.w3.org/2000/svg" width="512" height="512" viewBox="0 0 512 512">
    <path
        d="M13.483 11.733v488.534H48.64V512H0V0h48.64v11.733zm150.25 154.88v24.683h.704c6.592-9.45 14.571-16.725 23.83-21.845 9.237-5.227 19.968-7.787 32-7.787 11.52 0 22.037 2.283 31.594 6.699 9.558 4.437 16.747 12.416 21.76 23.637 5.419-7.979 12.8-15.061 22.059-21.163 9.259-6.122 20.267-9.173 32.981-9.173 9.664 0 18.603 1.195 26.88 3.563 8.278 2.346 15.275 6.101 21.184 11.306 5.888 5.227 10.432 11.926 13.782 20.288 3.242 8.363 4.906 18.411 4.906 30.23v122.197h-50.112V245.76c0-6.101-.213-11.925-.682-17.323a37.44 37.44 0 0 0-3.84-14.08 23.595 23.595 0 0 0-9.344-9.557c-4.139-2.347-9.75-3.541-16.747-3.541-7.083 0-12.8 1.365-17.13 4.032a29.44 29.44 0 0 0-10.24 10.645 41.515 41.515 0 0 0-4.929 14.848 118.613 118.613 0 0 0-1.28 16.747v101.717h-50.133v-102.4c0-5.419-.085-10.73-.384-16.043a44.245 44.245 0 0 0-3.05-14.677 22.443 22.443 0 0 0-8.854-10.73c-4.139-2.667-10.155-4.054-18.219-4.054-2.368 0-5.525.512-9.365 1.579-3.84 1.088-7.68 3.05-11.307 6.016-3.648 2.944-6.805 7.189-9.365 12.693-2.56 5.525-3.84 12.8-3.84 21.76v105.941H116.48v-182.72zm334.784 333.654V11.733H463.36V0H512v512h-48.64v-11.733z"
        style="stroke-width:21.3333;fill:#fff" />
</svg>
